HIERARCHY
ROOT Hips
{
	OFFSET -0.001795 -0.223333 0.028219
	CHANNELS 6 Xposition Yposition Zposition Zrotation Yrotation Xrotation 
	JOINT LeftUpLeg
	{
		OFFSET 0.069520 -0.091406 -0.006815
		CHANNELS 3 Zrotation Yrotation Xrotation
		JOINT LeftLeg
		{
			OFFSET 0.034277 -0.375199 -0.004496
			CHANNELS 3 Zrotation Yrotation Xrotation
			JOINT LeftFoot
			{
				OFFSET -0.013596 -0.397961 -0.043693
				CHANNELS 3 Zrotation Yrotation Xrotation
				JOINT LeftToe
				{
					OFFSET 0.026358 -0.055791 0.119288
					CHANNELS 3 Zrotation Yrotation Xrotation
					End Site
					{
						OFFSET 0.000000 0.000000 0.000000
					}
				}
			}
		}
	}
	JOINT RightUpLeg
	{
		OFFSET -0.067670 -0.090522 -0.004320
		CHANNELS 3 Zrotation Yrotation Xrotation
		JOINT RightLeg
		{
			OFFSET -0.038290 -0.382569 -0.008850
			CHANNELS 3 Zrotation Yrotation Xrotation
			JOINT RightFoot
			{
				OFFSET 0.015774 -0.398415 -0.042312
				CHANNELS 3 Zrotation Yrotation Xrotation
				JOINT RightToe
				{
					OFFSET -0.025372 -0.048144 0.123348
					CHANNELS 3 Zrotation Yrotation Xrotation
					End Site
					{
						OFFSET 0.000000 0.000000 0.000000
					}
				}
			}
		}
	}
	JOINT Spine
	{
		OFFSET -0.002533 0.108963 -0.026696
		CHANNELS 3 Zrotation Yrotation Xrotation
		JOINT Spine1
		{
			OFFSET 0.005487 0.135180 0.001092
			CHANNELS 3 Zrotation Yrotation Xrotation
			JOINT Spine2
			{
				OFFSET 0.001457 0.052922 0.025425
				CHANNELS 3 Zrotation Yrotation Xrotation
				JOINT Neck
				{
					OFFSET -0.002778 0.213870 -0.042857
					CHANNELS 3 Zrotation Yrotation Xrotation
					JOINT Head
					{
						OFFSET 0.005152 0.064970 0.051349
						CHANNELS 3 Zrotation Yrotation Xrotation
						End Site
						{
							OFFSET 0.000000 0.000000 0.000000
						}
					}
				}
				JOINT LeftShoulder
				{
					OFFSET 0.078845 0.121749 -0.034090
					CHANNELS 3 Zrotation Yrotation Xrotation
					JOINT LeftArm
					{
						OFFSET 0.090977 0.030469 -0.008868
						CHANNELS 3 Zrotation Yrotation Xrotation
						JOINT LeftForeArm
						{
							OFFSET 0.259612 -0.012772 -0.027456
							CHANNELS 3 Zrotation Yrotation Xrotation
							JOINT LeftHand
							{
								OFFSET 0.249234 0.008986 -0.001171
								CHANNELS 3 Zrotation Yrotation Xrotation
								End Site
								{
									OFFSET 0.000000 0.000000 0.000000
								}
							}
						}
					}
				}
				JOINT RightShoulder
				{
					OFFSET -0.081759 0.118833 -0.038615
					CHANNELS 3 Zrotation Yrotation Xrotation
					JOINT RightArm
					{
						OFFSET -0.096012 0.032551 -0.009143
						CHANNELS 3 Zrotation Yrotation Xrotation
						JOINT RightForeArm
						{
							OFFSET -0.253742 -0.013329 -0.021401
							CHANNELS 3 Zrotation Yrotation Xrotation
							JOINT RightHand
							{
								OFFSET -0.255298 0.007772 -0.005559
								CHANNELS 3 Zrotation Yrotation Xrotation
								End Site
								{
									OFFSET 0.000000 0.000000 0.000000
								}
							}
						}
					}
				}
			}
		}
	}
}
MOTION
Frames: 7
Frame Time: 0.050000
-0.017335 0.958300 0.894482 -1.460429 -3.181823 -0.381576 6.815030 -0.033763 -0.304850 -1.755668 0.051887 10.941941 1.030821 4.005724 5.153942 0.000000 0.000000 0.000000 -1.676244 0.257359 -2.492216 2.959360 -0.162710 7.616157 -1.446705 -5.823441 5.077864 0.000000 0.000000 0.000000 8.297184 -0.835082 7.048551 -4.971788 1.828971 -20.519476 -2.753577 6.338322 28.118315 11.222249 -3.134711 -32.247980 0.000000 0.000000 0.000000 -23.453936 -13.753678 5.341397 -34.600335 -15.267497 -1.532625 -64.537736 -77.622069 57.505494 0.000000 0.000000 0.000000 31.724986 -1.624544 -1.374894 46.222485 12.634816 -2.700630 49.803571 73.785468 45.109793 0.000000 0.000000 0.000000 
-0.021978 0.956821 0.899622 -1.471893 -2.408001 -0.333709 7.749193 -0.140040 -4.226258 -2.869886 0.266047 18.692499 1.411301 4.770238 5.155528 0.000000 0.000000 0.000000 -1.800418 0.230439 -2.180014 3.545434 -0.267019 8.043923 -2.071583 -6.751459 3.937815 0.000000 0.000000 0.000000 8.610466 -0.953068 7.826542 -4.969498 1.845191 -20.362064 -2.695058 5.673287 28.056775 10.889976 -2.963735 -32.471608 0.000000 0.000000 0.000000 -23.937271 -13.648767 5.345807 -34.300988 -15.403909 -1.505640 -64.110969 -76.963134 56.601913 0.000000 0.000000 0.000000 31.520273 -1.321398 -1.238433 45.736263 12.762973 -2.609625 48.836509 73.519304 43.937602 0.000000 0.000000 0.000000 
-0.024926 0.955484 0.906263 -1.564793 -2.993807 -0.029319 8.771386 -0.152478 -8.752154 -4.335792 0.876742 26.777874 1.600085 5.420450 6.235627 0.000000 0.000000 0.000000 -2.081414 0.269649 -2.593550 3.868174 -0.297205 9.214830 -2.280470 -6.991481 3.230178 0.000000 0.000000 0.000000 9.294142 -1.066660 8.341685 -5.005882 1.835132 -20.729353 -2.297868 6.363327 28.186602 10.173645 -2.480000 -32.846618 0.000000 0.000000 0.000000 -24.542866 -12.991381 4.859924 -34.309019 -14.502863 -1.710117 -70.793367 -76.560149 62.213011 0.000000 0.000000 0.000000 31.014019 -1.197568 -0.986652 44.703537 12.287454 -2.815869 51.297472 73.087324 45.633310 0.000000 0.000000 0.000000 
-0.026362 0.955142 0.915922 -1.058747 -3.155913 0.460211 9.235846 -0.145815 -13.081625 -6.183743 1.802386 32.044946 2.319422 7.007938 7.296540 0.000000 0.000000 0.000000 -2.932937 0.270388 -2.466998 4.322412 -0.367193 10.041155 -2.481978 -7.404420 3.092018 0.000000 0.000000 0.000000 9.494855 -1.089274 8.300666 -5.348557 1.930518 -20.397899 -1.844051 6.692783 27.772770 9.082624 -1.784909 -33.404619 0.000000 0.000000 0.000000 -26.042604 -12.572984 4.508187 -33.586055 -14.056669 -1.717514 -73.350229 -76.236785 64.170497 0.000000 0.000000 0.000000 30.795058 -1.188652 -0.900564 44.611506 12.658966 -2.665941 55.003014 72.067872 47.959141 0.000000 0.000000 0.000000 
-0.026433 0.955749 0.929288 -0.573491 -4.035350 0.279707 9.117377 -0.129692 -15.387111 -7.000722 2.243903 31.620555 3.529712 9.219182 7.899802 0.000000 0.000000 0.000000 -3.216149 0.197885 -1.345848 3.619560 -0.214855 10.161411 -1.789930 -5.792486 2.971234 0.000000 0.000000 0.000000 9.169613 -1.117003 8.909823 -4.859883 1.760347 -21.353295 -1.692804 8.383732 28.082267 9.418266 -1.763570 -33.513587 0.000000 0.000000 0.000000 -25.333582 -11.805185 3.638222 -34.660123 -13.031310 -1.929573 -79.930237 -74.810634 68.574714 0.000000 0.000000 0.000000 30.494707 -0.839475 -0.158740 44.369649 13.376216 -2.583802 58.496646 71.444461 50.788822 0.000000 0.000000 0.000000 
-0.024996 0.955725 0.945793 -0.178968 -3.932970 0.336559 8.779753 -0.188743 -17.366145 -6.638407 1.879902 27.900704 4.155869 10.370318 8.314095 0.000000 0.000000 0.000000 -3.706857 0.093845 0.429456 3.556824 -0.220785 9.297341 -1.883688 -5.810481 2.504885 0.000000 0.000000 0.000000 9.415089 -1.112115 8.682238 -5.628439 1.971346 -21.303550 -1.412075 8.841747 28.369779 9.974615 -1.882849 -34.124432 0.000000 0.000000 0.000000 -24.868734 -11.640842 3.375118 -35.175111 -13.368574 -1.837269 -80.954125 -74.855201 69.433247 0.000000 0.000000 0.000000 30.364616 -0.948124 0.006358 45.006022 15.198077 -2.034343 57.443570 70.878934 49.807323 0.000000 0.000000 0.000000 
-0.021557 0.954678 0.965341 0.087736 -4.109698 0.512261 8.348391 -0.254158 -17.950091 -6.253403 1.440601 21.052073 4.131493 10.331156 8.528377 0.000000 0.000000 0.000000 -4.189747 0.032453 1.849741 3.235186 -0.167085 8.967285 -1.726425 -5.425512 2.461708 0.000000 0.000000 0.000000 9.224970 -1.049133 8.251294 -5.641384 1.977148 -21.048054 -1.402991 9.503163 28.220008 9.624600 -1.521103 -34.772437 0.000000 0.000000 0.000000 -24.666961 -11.060709 2.822341 -35.059498 -12.681952 -1.938121 -84.241362 -74.109352 71.537707 0.000000 0.000000 0.000000 30.087749 -0.002318 0.890640 44.985042 16.809116 -1.505064 55.369110 69.816317 47.428132 0.000000 0.000000 0.000000 
